<svg width="24" height="24" viewBox="0 0 24 24" fill="none" xmlns="http://www.w3.org/2000/svg">
<path d="M23.383 17.7016L20.3995 14.718C19.5769 13.8955 18.2385 13.8955 17.4159 14.718L16.0598 16.0742C15.4366 16.6973 14.4226 16.6971 13.7997 16.0744L7.92157 10.1913C7.29696 9.56664 7.29687 8.55569 7.92157 7.93098C8.14001 7.71254 8.76725 7.08531 9.27772 6.57484C10.0967 5.75593 10.1081 4.42163 9.27692 3.59054L6.29416 0.617158C5.4716 -0.205359 4.13317 -0.205359 3.31281 0.615001C2.69894 1.22353 2.50094 1.41985 2.22569 1.69271C-0.74057 4.65891 -0.74057 9.48531 2.22555 12.4514L11.5393 21.77C14.5124 24.7432 19.3246 24.7435 22.2981 21.77L23.383 20.6851C24.2056 19.8625 24.2056 18.5241 23.383 17.7016ZM4.30516 1.61166C4.57933 1.33749 5.02539 1.33744 5.30046 1.61241L8.28321 4.58579C8.55804 4.86062 8.55804 5.30542 8.28321 5.58029L7.78592 6.07754L3.81044 2.10207L4.30516 1.61166ZM12.5339 20.7756L3.22019 11.457C0.925277 9.16206 0.799136 5.55854 2.83225 3.11293L6.7962 7.07687C5.75463 8.25761 5.79804 10.0568 6.92684 11.1856L12.8048 17.0685C12.8048 17.0685 12.8049 17.0686 12.805 17.0687C13.9326 18.1963 15.7317 18.2425 16.9139 17.1995L20.8779 21.1636C18.4401 23.1932 14.8446 23.0864 12.5339 20.7756ZM22.3886 19.6906L21.8913 20.1879L17.9132 16.2098L18.4104 15.7125C18.6847 15.4384 19.1308 15.4383 19.405 15.7125L22.3885 18.6961C22.6628 18.9703 22.6628 19.4165 22.3886 19.6906Z" fill="white"/>
</svg>
