<svg width="50" height="35" viewBox="0 0 50 35" fill="none" xmlns="http://www.w3.org/2000/svg">
<path d="M11.2 14V14.8C13.8667 15.0667 16.2 16.1333 18.2 18C20.2 19.7333 21.2 21.9333 21.2 24.6C21.2 27.1333 20.2667 29.4 18.4 31.4C16.5333 33.4 14 34.4 10.8 34.4C7.73333 34.4 5.13333 33 3 30.2C1 27.4 1.19209e-07 23.9333 1.19209e-07 19.8C1.19209e-07 15.6667 1.8 11.4 5.4 7C9.13333 2.59999 12.8667 0.399989 16.6 0.399989C17.8 0.399989 18.4 0.59999 18.4 0.999993C18.4 1.4 18.1333 1.6 17.6 1.6C17.0667 1.6 16.0667 2.6 14.6 4.59999C12.3333 7.53333 11.2 10.6667 11.2 14ZM39.8 14V14.8C42.4667 15.0667 44.8 16.1333 46.8 18C48.8 19.7333 49.8 21.9333 49.8 24.6C49.8 27.1333 48.8667 29.4 47 31.4C45.2667 33.4 42.8 34.4 39.6 34.4C36.5333 34.4 33.9333 33 31.8 30.2C29.6667 27.4 28.6 23.9333 28.6 19.8C28.6 15.6667 30.4667 11.4 34.2 7C37.9333 2.59999 41.6667 0.399989 45.4 0.399989C46.4667 0.399989 47 0.59999 47 0.999993C47 1.4 46.8667 1.6 46.6 1.6C45.8 1.6 44.6667 2.6 43.2 4.59999C40.9333 7.66666 39.8 10.8 39.8 14Z" fill="#D8D8D8"/>
</svg>
